<mxfile host="app.diagrams.net" agent="Mozilla/5.0 (Windows NT 10.0; Win64; x64) AppleWebKit/537.36 (KHTML, like Gecko) Chrome/134.0.0.0 Safari/537.36" version="26.1.1">
  <diagram name="Page-1" id="uWI0UHa1l1BEISpiA-6f">
    <mxGraphModel dx="1114" dy="558" grid="1" gridSize="10" guides="1" tooltips="1" connect="1" arrows="1" fold="1" page="1" pageScale="1" pageWidth="850" pageHeight="1100" math="0" shadow="0">
      <root>
        <mxCell id="0" />
        <mxCell id="1" parent="0" />
        <mxCell id="oPgdGFAKZrX9Cog6Ysi--2" value="" style="rounded=1;whiteSpace=wrap;html=1;fillColor=#fff2cc;strokeColor=#d6b656;" vertex="1" parent="1">
          <mxGeometry x="290" y="240" width="170" height="90" as="geometry" />
        </mxCell>
        <mxCell id="oPgdGFAKZrX9Cog6Ysi--3" value="" style="rounded=1;whiteSpace=wrap;html=1;fillColor=light-dark(#7ecd7a, #1f2f1e);strokeColor=#82b366;" vertex="1" parent="1">
          <mxGeometry x="280" y="80" width="200" height="120" as="geometry" />
        </mxCell>
        <mxCell id="oPgdGFAKZrX9Cog6Ysi--5" value="" style="endArrow=none;html=1;rounded=0;exitX=0.5;exitY=1;exitDx=0;exitDy=0;entryX=0.5;entryY=0;entryDx=0;entryDy=0;" edge="1" parent="1" source="oPgdGFAKZrX9Cog6Ysi--3" target="oPgdGFAKZrX9Cog6Ysi--3">
          <mxGeometry width="50" height="50" relative="1" as="geometry">
            <mxPoint x="330" y="170" as="sourcePoint" />
            <mxPoint x="380" y="120" as="targetPoint" />
          </mxGeometry>
        </mxCell>
        <mxCell id="oPgdGFAKZrX9Cog6Ysi--6" value="GUI" style="text;html=1;align=center;verticalAlign=middle;whiteSpace=wrap;rounded=0;" vertex="1" parent="1">
          <mxGeometry x="300" y="100" width="60" height="70" as="geometry" />
        </mxCell>
        <mxCell id="oPgdGFAKZrX9Cog6Ysi--9" value="&lt;font style=&quot;font-size: 12px;&quot;&gt;R-1.2.1, R-1.2.2, R-1.2.3, R-1.2.4, R-1.2.5, R-1.2.6, R-1.6.1, R-1.6.2&lt;/font&gt;" style="text;html=1;align=center;verticalAlign=middle;whiteSpace=wrap;rounded=0;" vertex="1" parent="1">
          <mxGeometry x="395" y="125" width="60" height="30" as="geometry" />
        </mxCell>
        <mxCell id="oPgdGFAKZrX9Cog6Ysi--10" value="" style="rounded=1;whiteSpace=wrap;html=1;fillColor=#fff2cc;strokeColor=#d6b656;" vertex="1" parent="1">
          <mxGeometry x="515" y="240" width="170" height="90" as="geometry" />
        </mxCell>
        <mxCell id="oPgdGFAKZrX9Cog6Ysi--11" value="" style="rounded=1;whiteSpace=wrap;html=1;fillColor=#fff2cc;strokeColor=#d6b656;" vertex="1" parent="1">
          <mxGeometry x="80" y="240" width="160" height="90" as="geometry" />
        </mxCell>
        <mxCell id="oPgdGFAKZrX9Cog6Ysi--12" value="" style="endArrow=none;html=1;rounded=0;exitX=0.5;exitY=1;exitDx=0;exitDy=0;" edge="1" parent="1" source="oPgdGFAKZrX9Cog6Ysi--11">
          <mxGeometry width="50" height="50" relative="1" as="geometry">
            <mxPoint x="110" y="290" as="sourcePoint" />
            <mxPoint x="160" y="240" as="targetPoint" />
          </mxGeometry>
        </mxCell>
        <mxCell id="oPgdGFAKZrX9Cog6Ysi--13" value="" style="endArrow=none;html=1;rounded=0;entryX=0.553;entryY=0.022;entryDx=0;entryDy=0;entryPerimeter=0;" edge="1" parent="1">
          <mxGeometry width="50" height="50" relative="1" as="geometry">
            <mxPoint x="610" y="329" as="sourcePoint" />
            <mxPoint x="609.01" y="240" as="targetPoint" />
          </mxGeometry>
        </mxCell>
        <mxCell id="oPgdGFAKZrX9Cog6Ysi--14" value="" style="endArrow=none;html=1;rounded=0;" edge="1" parent="1">
          <mxGeometry width="50" height="50" relative="1" as="geometry">
            <mxPoint x="379.5" y="330" as="sourcePoint" />
            <mxPoint x="379.5" y="240" as="targetPoint" />
          </mxGeometry>
        </mxCell>
        <mxCell id="oPgdGFAKZrX9Cog6Ysi--15" value="Manual&lt;div&gt;Interaction&lt;/div&gt;" style="text;html=1;align=center;verticalAlign=middle;whiteSpace=wrap;rounded=0;" vertex="1" parent="1">
          <mxGeometry x="90" y="265" width="60" height="30" as="geometry" />
        </mxCell>
        <mxCell id="oPgdGFAKZrX9Cog6Ysi--16" value="Coffee Machine status" style="text;html=1;align=center;verticalAlign=middle;whiteSpace=wrap;rounded=0;" vertex="1" parent="1">
          <mxGeometry x="310" y="270" width="60" height="30" as="geometry" />
        </mxCell>
        <mxCell id="oPgdGFAKZrX9Cog6Ysi--17" value="Instructions" style="text;html=1;align=center;verticalAlign=middle;whiteSpace=wrap;rounded=0;" vertex="1" parent="1">
          <mxGeometry x="540" y="270" width="60" height="30" as="geometry" />
        </mxCell>
        <mxCell id="oPgdGFAKZrX9Cog6Ysi--18" value="&lt;font style=&quot;font-size: 12px;&quot;&gt;R-1.2.1, R-1.2.2, R-1.2.3, R-1.2.4, R-1.2.5, R-1.2.6&lt;/font&gt;" style="text;html=1;align=center;verticalAlign=middle;whiteSpace=wrap;rounded=0;" vertex="1" parent="1">
          <mxGeometry x="395" y="270" width="60" height="30" as="geometry" />
        </mxCell>
        <mxCell id="oPgdGFAKZrX9Cog6Ysi--20" value="R-1.6.1" style="text;html=1;align=center;verticalAlign=middle;whiteSpace=wrap;rounded=0;" vertex="1" parent="1">
          <mxGeometry x="610" y="270" width="60" height="30" as="geometry" />
        </mxCell>
        <mxCell id="oPgdGFAKZrX9Cog6Ysi--21" value="&lt;div&gt;R-1.2.3, R-1.2.4, R-1.2.5, R-1.2.6,&lt;/div&gt;R-1.6.2" style="text;html=1;align=center;verticalAlign=middle;whiteSpace=wrap;rounded=0;" vertex="1" parent="1">
          <mxGeometry x="170" y="270" width="60" height="30" as="geometry" />
        </mxCell>
        <mxCell id="oPgdGFAKZrX9Cog6Ysi--24" value="" style="endArrow=classic;html=1;rounded=0;entryX=0.5;entryY=0;entryDx=0;entryDy=0;" edge="1" parent="1" target="oPgdGFAKZrX9Cog6Ysi--11">
          <mxGeometry width="50" height="50" relative="1" as="geometry">
            <mxPoint x="380" y="200" as="sourcePoint" />
            <mxPoint x="450" y="280" as="targetPoint" />
          </mxGeometry>
        </mxCell>
        <mxCell id="oPgdGFAKZrX9Cog6Ysi--25" value="" style="endArrow=classic;html=1;rounded=0;exitX=0.5;exitY=1;exitDx=0;exitDy=0;" edge="1" parent="1" source="oPgdGFAKZrX9Cog6Ysi--3">
          <mxGeometry width="50" height="50" relative="1" as="geometry">
            <mxPoint x="390" y="220" as="sourcePoint" />
            <mxPoint x="380" y="240" as="targetPoint" />
          </mxGeometry>
        </mxCell>
        <mxCell id="oPgdGFAKZrX9Cog6Ysi--26" value="" style="endArrow=classic;html=1;rounded=0;exitX=0.5;exitY=1;exitDx=0;exitDy=0;entryX=0.559;entryY=0.022;entryDx=0;entryDy=0;entryPerimeter=0;" edge="1" parent="1" source="oPgdGFAKZrX9Cog6Ysi--3" target="oPgdGFAKZrX9Cog6Ysi--10">
          <mxGeometry width="50" height="50" relative="1" as="geometry">
            <mxPoint x="400" y="330" as="sourcePoint" />
            <mxPoint x="450" y="280" as="targetPoint" />
          </mxGeometry>
        </mxCell>
        <mxCell id="oPgdGFAKZrX9Cog6Ysi--29" value="Displays premade instructions on how to use the espresso machine" style="whiteSpace=wrap;html=1;aspect=fixed;fillColor=#f5f5f5;fontColor=#333333;strokeColor=#666666;" vertex="1" parent="1">
          <mxGeometry x="570" y="360" width="90" height="90" as="geometry" />
        </mxCell>
        <mxCell id="oPgdGFAKZrX9Cog6Ysi--30" value="Displays 2 parameters constantly on the main screen" style="whiteSpace=wrap;html=1;aspect=fixed;fillColor=#f5f5f5;fontColor=#333333;strokeColor=#666666;" vertex="1" parent="1">
          <mxGeometry x="330" y="360" width="90" height="90" as="geometry" />
        </mxCell>
        <mxCell id="oPgdGFAKZrX9Cog6Ysi--31" value="Displays customized data when the user interacts with the dashboard" style="whiteSpace=wrap;html=1;aspect=fixed;fillColor=#f5f5f5;fontColor=#333333;strokeColor=#666666;" vertex="1" parent="1">
          <mxGeometry x="120" y="360" width="90" height="90" as="geometry" />
        </mxCell>
        <mxCell id="oPgdGFAKZrX9Cog6Ysi--33" value="" style="endArrow=none;html=1;rounded=0;" edge="1" parent="1">
          <mxGeometry width="50" height="50" relative="1" as="geometry">
            <mxPoint x="160" y="358" as="sourcePoint" />
            <mxPoint x="160" y="330" as="targetPoint" />
          </mxGeometry>
        </mxCell>
        <mxCell id="oPgdGFAKZrX9Cog6Ysi--34" value="" style="endArrow=none;html=1;rounded=0;" edge="1" parent="1">
          <mxGeometry width="50" height="50" relative="1" as="geometry">
            <mxPoint x="379.5" y="358" as="sourcePoint" />
            <mxPoint x="379.5" y="330" as="targetPoint" />
          </mxGeometry>
        </mxCell>
        <mxCell id="oPgdGFAKZrX9Cog6Ysi--37" value="" style="endArrow=none;html=1;rounded=0;" edge="1" parent="1">
          <mxGeometry width="50" height="50" relative="1" as="geometry">
            <mxPoint x="610" y="360" as="sourcePoint" />
            <mxPoint x="610" y="332" as="targetPoint" />
          </mxGeometry>
        </mxCell>
      </root>
    </mxGraphModel>
  </diagram>
</mxfile>
